<svg xmlns="http://www.w3.org/2000/svg" version="1.1" xmlns:xlink="http://www.w3.org/1999/xlink" xmlns:svgjs="http://svgjs.dev/svgjs" width="1000" height="1125" viewBox="0 0 1000 1125"><g transform="matrix(1,0,0,1,1.7053025658242404e-13,0)"><svg viewBox="0 0 320 360" data-background-color="#ffffff" preserveAspectRatio="xMidYMid meet" height="1125" width="1000" xmlns="http://www.w3.org/2000/svg" xmlns:xlink="http://www.w3.org/1999/xlink"><g id="tight-bounds" transform="matrix(1,0,0,1,0,0)"><svg viewBox="0 0 320 360" height="360" width="320"><g><svg></svg></g><g><svg viewBox="0 0 320 360" height="360" width="320"><g><path xmlns="http://www.w3.org/2000/svg" d="M20.961 227.22l3.726 4.658-1.863-6.056c-0.466-2.795-3.726 0.466-1.863 1.398M25.153 224.425c1.397 2.329 2.795 4.658 2.795 6.987 0 3.261 2.795 4.658 5.123 5.589-3.261-3.726-5.124-13.974-7.918-12.576M204.017 26.929c7.918 0 15.371-0.932 23.756 0.931 20.495 5.124 37.729 15.371 49.374 29.811l32.606 52.169c1.397 13.042 4.192 27.482 3.726 43.319 3.261 0 2.795-4.658 6.521-5.59-3.726 9.316-5.59 20.961-6.521 34.469-2.329-7.453 0-18.632 0.466-24.687-3.261 5.124-5.124 1.397-5.124-0.932 0.466-3.726-1.397-3.261-2.795-4.658-5.124-4.658-8.384-9.782-12.11-17.7 2.329-6.055 2.795-14.905-4.658-19.563-2.329-1.397-5.124-3.726-6.521-7.453-1.863-5.124-5.124-11.179-4.193-19.097 0.466-2.329-6.987 5.124-11.179 1.863-18.166-12.576-36.332-27.016-58.224-39.127-11.645 0-20.029-4.192-24.221-9.316-3.726-4.658-0.932-10.713 4.658-11.179 3.261 0 6.987-0.932 9.782 0.932 0.466-1.863 2.329-4.192 4.657-4.192M157.904 16.215l0.932 0.466c4.658 0.932 6.987 7.453 12.11 5.124 0 3.261 0.466 6.521-0.466 8.85-1.397 3.726-5.59 3.726-8.85 3.726-31.208-1.863-49.374 11.179-68.471 22.358-5.124 3.261-10.713 5.59-14.906 9.782-20.029 18.632-41.921 35.866-47.045 70.335l-4.192 38.195c-0.466 4.192-5.124 8.384-4.192 13.508l3.26 22.824c-3.261-3.261-5.124 0.932-4.192 2.795 0.466 1.397 2.329 6.055 5.124 1.863 3.726 6.987 7.453 20.495 12.576 26.55 15.837 18.632 36.332 35.4 53.101 52.169 4.192-0.932 7.453-0.932 8.384-3.727 1.397 2.795-1.397 5.59-3.726 6.056 7.453 4.658 15.837 8.85 27.016 9.781 14.44 0.932 27.948 3.261 40.524 6.522 6.521-1.863 13.042-2.795 20.029-3.261 2.329 0 3.726-3.726 6.521-4.658l0.466-4.658c2.795 4.192 2.329-1.397 0.466-4.192 3.261 2.795 4.192 5.124 5.589 6.987 0-1.397 3.726-6.521 3.727-0.466l0.931-6.055c1.397-0.932 1.863 5.124 3.261 0.931 1.397-4.192 4.192-0.932 6.987-2.329-0.932 1.863-0.466 5.59 2.794 3.261l3.727-3.261c2.329 5.59 6.055 3.261 7.918 2.329 20.495-13.042 40.99-28.413 60.553-43.784l-0.466 6.055 2.329-7.453c2.329 2.329 4.192 0.466 5.124-0.931 2.795-4.658 6.521-9.316 12.577-13.508-7.453 20.029-16.303 35.866-27.482 48.908l-4.658 5.59c0 3.261-0.932 7.453-4.658 7.918-1.863 0.466-5.59-0.932-8.384 1.863-1.397 1.863 3.261 5.59-0.466 2.795-3.261-2.329-6.521 0-10.248 0.932-2.795 0.932 1.863 3.726 2.795 5.589 0.932 1.863 1.863 3.726 1.398 6.056l-5.124-5.59c-6.055 3.261-9.782 9.316-14.906 13.974-2.329 1.863-1.397 5.124-1.397 7.918-3.261 0-6.987-0.932-8.85 0.932-1.397 1.863-0.932 4.658-0.932 7.453-4.658-0.466-5.124-7.453-9.315-6.056-4.192 0.932-8.85 1.397-12.577 3.727 2.795 5.59-4.658 2.329-3.726 3.26-6.987-4.192-13.042-7.453-20.495-4.658-15.837-5.124-35.4-2.795-49.84-0.931 0-2.329 0.466-4.658-0.466-5.124-0.932 2.329-3.726 1.397-3.26 1.397-8.85-6.055-17.7-9.782-27.016-14.905-8.384 0.932-16.303-3.261-18.632-5.59-6.521-6.055-13.974-2.795-20.029-4.192-13.042-3.261-17.7-16.769-19.098-26.084-0.932-4.658-4.658-6.521-6.055-6.056-6.055-19.563-15.371-37.263-22.824-55.429-1.863-4.658-1.397-9.316-1.397-14.44 2.329 0.932 4.658 0.466 4.192-2.794-2.329-15.371-7.918-27.016-13.974-38.195 3.261-15.837 3.726-34.469 11.179-48.443 6.521-12.576 18.632-19.098 27.016-29.811 2.795-3.726 2.795-8.85 5.59-12.11 9.316-9.316 18.632-19.098 28.879-27.482 4.658-3.726 10.247 0 17.234-1.397 2.329-8.384 11.645-15.837 20.495-13.508 3.726 0.932 11.179-8.85 13.508-9.782 3.726-1.397 1.863 3.726 1.863 6.987 8.85-6.987 20.961-10.713 32.14-14.906" fill="#ff0000" fill-rule="nonzero" stroke="none" stroke-width="1" stroke-linecap="butt" stroke-linejoin="miter" stroke-miterlimit="10" stroke-dasharray="" stroke-dashoffset="0" font-family="none" font-weight="none" font-size="none" text-anchor="none" style="mix-blend-mode: normal" data-fill-palette-color="tertiary"></path></g><g transform="matrix(1,0,0,1,64,141.54154432082794)"><svg viewBox="0 0 192 76.91691135834411" height="76.91691135834411" width="192"><g><svg viewBox="0 0 192 76.91691135834411" height="76.91691135834411" width="192"><g><svg viewBox="0 0 192 76.91691135834411" height="76.91691135834411" width="192"><g transform="matrix(1,0,0,1,0,46.490003208279425)"><svg viewBox="0 0 192 30.42690815006468" height="30.42690815006468" width="192"><g id="textblocktransform"><svg viewBox="0 0 192 30.42690815006468" height="30.42690815006468" width="192" id="textblock"><g><svg viewBox="0 0 192 30.42690815006468" height="30.42690815006468" width="192"><g transform="matrix(1,0,0,1,0,0)"><svg width="192" viewBox="1.9000000953674316 -36.150001525878906 231.8800048828125 36.75" height="30.42690815006468" data-palette-color="#ff0000"><path d="M14.45 0.6Q8.1 0.6 5-2.75 1.9-6.1 1.9-13.15L1.9-13.15Q1.9-20.2 5-23.55 8.1-26.9 14.45-26.9L14.45-26.9Q20.2-26.9 23.05-23.78 25.9-20.65 25.9-13.85L25.9-13.85 25.9-11.85 7.2-11.85Q7.4-7.6 9.13-5.58 10.85-3.55 14.5-3.55L14.5-3.55Q17.35-3.55 19.1-4.9 20.85-6.25 20.85-9.05L20.85-9.05 25.9-9.05Q25.9-4.35 22.73-1.88 19.55 0.6 14.45 0.6L14.45 0.6ZM7.3-15.75L20.55-15.75Q20.55-22.75 14.45-22.75L14.45-22.75Q11.05-22.75 9.35-21.08 7.65-19.4 7.3-15.75L7.3-15.75ZM31.2 0L31.2-36.15 36.35-36.15 36.35 0 31.2 0ZM50.05 0L40.35-26.3 45.75-26.3 50.25-13.7Q51.15-11.2 52.7-5.55L52.7-5.55 52.95-5.55Q54.4-10.9 55.4-13.7L55.4-13.7 59.85-26.3 65-26.3 55.3 0 50.05 0ZM68.99-30.9L68.99-36.15 74.09-36.15 74.09-30.9 68.99-30.9ZM68.99 0L68.99-26.3 74.14-26.3 74.14 0 68.99 0ZM80.94 0L80.94-26.3 85.09-26.3 85.59-22.8 85.94-22.8Q87.34-24.8 89.57-25.85 91.79-26.9 94.59-26.9L94.59-26.9Q102.94-26.9 102.94-17.85L102.94-17.85 102.94 0 97.79 0 97.79-17.2Q97.79-20.15 96.47-21.33 95.14-22.5 92.59-22.5L92.59-22.5Q90.84-22.5 89.34-21.63 87.84-20.75 86.97-19.15 86.09-17.55 86.09-15.45L86.09-15.45 86.09 0 80.94 0ZM109.59 0L109.59-36.15 114.74-36.15 114.74-23.3 115.09-23.3Q117.89-26.9 123.24-26.9L123.24-26.9Q131.59-26.9 131.59-17.85L131.59-17.85 131.59 0 126.44 0 126.44-17.2Q126.44-20.15 125.11-21.33 123.79-22.5 121.24-22.5L121.24-22.5Q119.49-22.5 117.99-21.63 116.49-20.75 115.61-19.15 114.74-17.55 114.74-15.45L114.74-15.45 114.74 0 109.59 0ZM149.14 0.6Q142.89 0.6 139.76-2.78 136.64-6.15 136.64-13.15L136.64-13.15Q136.64-20.15 139.76-23.53 142.89-26.9 149.14-26.9L149.14-26.9Q155.39-26.9 158.54-23.53 161.69-20.15 161.69-13.15L161.69-13.15Q161.69-6.15 158.54-2.78 155.39 0.6 149.14 0.6L149.14 0.6ZM149.14-3.65Q152.94-3.65 154.66-5.88 156.39-8.1 156.39-12.9L156.39-12.9 156.39-13.4Q156.39-18.2 154.66-20.43 152.94-22.65 149.14-22.65L149.14-22.65Q145.39-22.65 143.66-20.43 141.94-18.2 141.94-13.4L141.94-13.4 141.94-12.9Q141.94-8.1 143.66-5.88 145.39-3.65 149.14-3.65L149.14-3.65ZM167.73 0L167.73-5.85 173.28-5.85 173.28 0 167.73 0ZM181.13 0L181.13-34.3 186.68-34.3 186.68-16.1 204.13-34.3 210.88-34.3 197.73-20.5 211.28 0 204.73 0 193.98-16.6 186.68-10 186.68 0 181.13 0ZM223.38 0.6Q218.38 0.6 215.68-1.93 212.98-4.45 212.98-9.3L212.98-9.3 212.98-10.85 218.48-10.85 218.48-9.15Q218.48-6.7 219.73-5.4 220.98-4.1 223.38-4.1L223.38-4.1Q225.78-4.1 227.03-5.53 228.28-6.95 228.28-9.7L228.28-9.7 228.28-34.3 233.78-34.3 233.78-9.85Q233.78-4.65 231.1-2.02 228.43 0.6 223.38 0.6L223.38 0.6Z" opacity="1" transform="matrix(1,0,0,1,0,0)" fill="#ff0000" class="wordmark-text-0" data-fill-palette-color="primary" id="text-0"></path></svg></g></svg></g></svg></g></svg></g><g transform="matrix(1,0,0,1,79.7312265244106,0)"><svg viewBox="0 0 32.53754695117881 42.04998706338939" height="42.04998706338939" width="32.53754695117881"><g><svg xmlns="http://www.w3.org/2000/svg" xmlns:xlink="http://www.w3.org/1999/xlink" version="1.1" x="0" y="0" viewBox="12.982999801635742 1 75.68599700927734 97.81300354003906" enable-background="new 0 0 100 100" xml:space="preserve" height="42.04998706338939" width="32.53754695117881" class="icon-icon-0" data-fill-palette-color="accent" id="icon-0"><g fill="#ed2647" data-fill-palette-color="accent"><polygon fill-rule="evenodd" clip-rule="evenodd" points="12.983,10.59 30.001,98.813 24.129,39.764 53.15,37.872 53.096,27.989    64.549,1 53.622,18.977  " fill="#ed2647" data-fill-palette-color="accent"></polygon><polygon fill-rule="evenodd" clip-rule="evenodd" points="59.389,54.548 64.549,1.007 55.809,40.723 36.197,41.768 37.767,62.23    30.001,98.813 42.058,58.914  " fill="#ed2647" data-fill-palette-color="accent"></polygon><polygon fill-rule="evenodd" clip-rule="evenodd" points="62.8,67.182 63.349,56.729 47.37,60.484 47.338,72.281 30.001,98.813    51.681,71.197  " fill="#ed2647" data-fill-palette-color="accent"></polygon><polygon fill-rule="evenodd" clip-rule="evenodd" points="65.711,62.394 80.552,57.663 82.061,45.131 66.162,47.226  " fill="#ed2647" data-fill-palette-color="accent"></polygon><polygon fill-rule="evenodd" clip-rule="evenodd" points="72.07,44.502 83.058,43.085 84.639,32.807 76.56,32.434 64.549,1    72.979,31.967  " fill="#ed2647" data-fill-palette-color="accent"></polygon><polygon fill-rule="evenodd" clip-rule="evenodd" points="87.413,31.294 88.669,21.788 79.125,19.094 64.549,1 79.032,23.437    78.61,30.437  " fill="#ed2647" data-fill-palette-color="accent"></polygon></g></svg></g></svg></g><g></g></svg></g></svg></g></svg></g></svg></g><defs></defs></svg><rect width="320" height="360" fill="none" stroke="none" visibility="hidden"></rect></g></svg></g></svg>